<?xml version="1.0" encoding="UTF-8"?>
<svg width="28px" height="28px" viewBox="0 0 28 28" version="1.1" xmlns="http://www.w3.org/2000/svg" xmlns:xlink="http://www.w3.org/1999/xlink">
    <!-- Generator: Sketch 46.2 (44496) - http://www.bohemiancoding.com/sketch -->
    <desc>Created with Sketch.</desc>
    <defs></defs>
    <g id="Blueprint-Inside-Action" stroke="none" stroke-width="1" fill="none" fill-rule="evenodd">
        <g id="1.2.4-Blueprint-Add-Flow-View-Code" transform="translate(-511.000000, -345.000000)" fill="#B5C4CF">
            <g id="Group-5" transform="translate(511.000000, 345.000000)">
                <path d="M14,13 C11.5147186,13 9.5,10.9852814 9.5,8.5 C9.5,6.01471863 11.5147186,4 14,4 C16.4852814,4 18.5,6.01471863 18.5,8.5 C18.5,10.9852814 16.4852814,13 14,13 Z M9,15 L19,15 C20.1045695,15 21,15.8954305 21,17 L21,21 C21,22.1045695 20.1045695,23 19,23 L9,23 C7.8954305,23 7,22.1045695 7,21 L7,17 C7,15.8954305 7.8954305,15 9,15 L9,15 Z" id="Combined-Shape"></path>
                <path d="M4.66666667,1.55555556 C2.94844744,1.55555556 1.55555556,2.94844744 1.55555556,4.66666667 L1.55555556,23.3333333 C1.55555556,25.0515526 2.94844744,26.4444444 4.66666667,26.4444444 L23.3333333,26.4444444 C25.0515526,26.4444444 26.4444444,25.0515526 26.4444444,23.3333333 L26.4444444,4.66666667 C26.4444444,2.94844744 25.0515526,1.55555556 23.3333333,1.55555556 L4.66666667,1.55555556 Z M4.66666667,1.38161088e-15 L23.3333333,1.38161088e-15 C25.9106622,9.08163249e-16 28,2.08933783 28,4.66666667 L28,23.3333333 C28,25.9106622 25.9106622,28 23.3333333,28 L4.66666667,28 C2.08933783,28 3.15631751e-16,25.9106622 0,23.3333333 L1.38161088e-15,4.66666667 C1.06597912e-15,2.08933783 2.08933783,4.73447626e-16 4.66666667,1.38161088e-15 Z" id="Rectangle-4" fill-rule="nonzero"></path>
            </g>
        </g>
    </g>
</svg>
