<?xml version="1.0" encoding="UTF-8"?>
<svg width="16px" height="16px" viewBox="0 0 16 16" version="1.1" xmlns="http://www.w3.org/2000/svg" xmlns:xlink="http://www.w3.org/1999/xlink">
    <!-- Generator: Sketch 46.1 (44463) - http://www.bohemiancoding.com/sketch -->
    <title>ICONS/Actions@3x</title>
    <desc>Created with Sketch.</desc>
    <defs></defs>
    <g id="Symbols" stroke="none" stroke-width="1" fill="none" fill-rule="evenodd">
        <g id="ICONS/Actions">
            <g id="Page-1">
                <g id="Group-3" fill="#6EEDD8">
                    <path d="M7.9999,16.0001 C12.4179,16.0001 15.9999,12.4181 15.9999,8.0001 C15.9999,3.5821 12.4179,0.0001 7.9999,0.0001 C3.5819,0.0001 -0.0001,3.5821 -0.0001,8.0001 C-0.0001,12.4181 3.5819,16.0001 7.9999,16.0001" id="Fill-1"></path>
                </g>
                <path d="M3.69501219,8.0204228 L5.02798524,6.70781776 C5.26409678,6.47531404 5.26702149,6.09542631 5.03451777,5.85931477 C4.80201405,5.62320323 4.42212632,5.62027852 4.18601478,5.85278224 L2.41901478,7.59278224 C2.18037653,7.82777406 2.18032125,8.21263646 2.418892,8.44769682 L4.185892,10.1886968 C4.42193674,10.4212684 4.80182529,10.4184528 5.03439683,10.182408 C5.26696836,9.94636327 5.26415277,9.56647472 5.02810802,9.33390318 L3.69501219,8.0204228 Z" id="Stroke-4" stroke="#005448" stroke-width="0.3" fill="#005448" fill-rule="nonzero"></path>
                <path d="M10.8690145,9.33328224 C10.6329029,9.56578596 10.6299782,9.94567369 10.8624819,10.1817852 C11.0949857,10.4178968 11.4748734,10.4208215 11.7109849,10.1883178 L13.4779849,8.44831776 C13.7166232,8.21332594 13.7166784,7.82846354 13.4781077,7.59340318 L11.7111077,5.85240318 C11.475063,5.61983165 11.0951744,5.62264724 10.8626029,5.85869199 C10.6300313,6.09473673 10.6328469,6.47462528 10.8688917,6.70719682 L12.2019875,8.0206772 L10.8690145,9.33328224 Z" id="Stroke-6" stroke="#005448" stroke-width="0.3" fill="#005448" fill-rule="nonzero"></path>
                <path d="M9.15424166,3.38476112 L5.72724166,12.1797611 C5.60693257,12.4885205 5.75970173,12.8363492 6.06846112,12.9566583 C6.37722052,13.0769674 6.72504925,12.9241983 6.84535834,12.6154389 L10.2723583,3.82043888 C10.3926674,3.51167948 10.2398983,3.16385075 9.93113888,3.04354166 C9.62237948,2.92323257 9.27455075,3.07600173 9.15424166,3.38476112 Z" id="Stroke-8" stroke="#005448" stroke-width="0.3" fill="#005448" fill-rule="nonzero" transform="translate(7.999800, 8.000100) rotate(-4.200000) translate(-7.999800, -8.000100) "></path>
            </g>
        </g>
    </g>
</svg>