<?xml version="1.0" encoding="UTF-8"?>
<svg width="16px" height="16px" viewBox="0 0 16 16" version="1.1" xmlns="http://www.w3.org/2000/svg" xmlns:xlink="http://www.w3.org/1999/xlink">
    <!-- Generator: Sketch 46.1 (44463) - http://www.bohemiancoding.com/sketch -->
    <title>ICONS/Sequence Actions@3x</title>
    <desc>Created with Sketch.</desc>
    <defs></defs>
    <g id="Symbols" stroke="none" stroke-width="1" fill="none" fill-rule="evenodd">
        <g id="ICONS/Sequence-Actions">
            <g id="Group-10">
                <path d="M8.0002,16.0001 C12.4182,16.0001 16.0002,12.4181 16.0002,8.0001 C16.0002,3.5821 12.4182,0.0001 8.0002,0.0001 C3.5822,0.0001 0.0002,3.5821 0.0002,8.0001 C0.0002,12.4181 3.5822,16.0001 8.0002,16.0001" id="Fill-1" fill="#6EEDD8"></path>
                <g id="Group" transform="translate(2.295239, 3.295239)" fill="#005448">
                    <g id="Group-2" transform="translate(5.504761, 5.000000) scale(-1, 1) translate(-5.504761, -5.000000) translate(0.504761, 0.000000)">
                        <path d="M7.01855793,4.70975973 C6.53284464,4.70975973 6.08326574,4.86186525 5.7109976,5.11817566 L4.30007613,3.70636753 C4.55637813,3.33324681 4.70847865,2.88281278 4.70847865,2.39540284 C4.70847865,1.1163719 3.67234634,0.0802055754 2.39419771,0.0802055754 C1.11604908,0.0802055754 0.0790764327,1.1163719 0.0790764327,2.39540284 C0.0790764327,3.67359341 1.11604908,4.70975973 2.39419771,4.70975973 C2.88159166,4.70975973 3.3320109,4.55765421 3.70511938,4.30050345 L5.11688117,5.71231158 C4.86057918,6.08459193 4.70847865,6.5341856 4.70847865,7.01991482 C4.70847865,8.29558431 5.7429303,9.33006991 7.01855793,9.33006991 C8.29418555,9.33006991 9.3286372,8.29558431 9.3286372,7.01991482 C9.3286372,5.74424533 8.29418555,4.70975973 7.01855793,4.70975973 Z" id="Fill-4"></path>
                        <polygon id="Line" fill-rule="nonzero" points="3.46925632 4.2901483 5.11937442 5.9402664 5.9402664 5.11937442 4.2901483 3.46925632"></polygon>
                    </g>
                </g>
            </g>
        </g>
    </g>
</svg>