<?xml version="1.0" encoding="UTF-8"?>
<svg width="32px" height="39px" viewBox="0 0 32 39" version="1.1" xmlns="http://www.w3.org/2000/svg" xmlns:xlink="http://www.w3.org/1999/xlink">
  <g id="Action-Detail-(Full)-(Not-In-Target)" stroke="none" stroke-width="1" fill="none" fill-rule="evenodd">
    <g id="400-Actions-Detail-Triggers" transform="translate(-303.000000, -210.000000)" fill="#3D70B2">
      <g id="Group-4" transform="translate(301.000000, 204.000000)">
        <path
          d="M25.2973828,22.9318309 L30.4328892,19.2591443 C30.5601137,19.446239 30.720567,19.6122901 30.9419445,19.7108537 C31.588841,19.9988706 32.3517334,19.6967213 32.6459124,19.0359845 C32.9400914,18.3752477 32.6541573,17.6061309 32.0072609,17.3181141 C31.3603644,17.0300972 30.597472,17.3322464 30.303293,17.9929832 C30.2031533,18.2179007 30.1909731,18.4533099 30.2176636,18.6802219 L24.0200797,19.4960899 L18.2722158,4.0352555 C13.9276305,5.75497542 10.3324357,9.25907234 8.26039545,13.9129509 C6.18782256,18.5680259 5.98995858,23.5832784 7.61905266,27.9626518 C9.24580413,32.3409821 12.643951,35.9339787 17.201517,37.9631378 C21.7579118,39.9917754 26.7018326,40.1129068 31.0452467,38.3926653 L25.2973828,22.9318309 Z"
          id="Shape"
          transform="translate(19.647704, 21.813286) scale(-1, 1) rotate(-23.000000) translate(-19.647704, -21.813286) "></path>
        <rect id="Rectangle" x="13.2954545" y="39.8863636" width="11.25" height="5.11363636"></rect>
      </g>
    </g>
  </g>
</svg>
